<svg width="21" height="19" viewBox="0 0 21 19" fill="none" xmlns="http://www.w3.org/2000/svg">
<path id="Vector" d="M20.3451 2.68122C19.4655 0.87105 16.932 -0.609994 13.9851 0.252303C12.5768 0.660241 11.3482 1.53507 10.4999 2.73387C9.65152 1.53507 8.42287 0.660241 7.01465 0.252303C4.0611 -0.596829 1.53416 0.87105 0.654657 2.68122C-0.579275 5.21545 -0.0673242 8.06563 2.17738 11.1528C3.93639 13.5685 6.4502 16.0172 10.0995 18.8608C10.2148 18.951 10.3569 19 10.5031 19C10.6494 19 10.7915 18.951 10.9068 18.8608C14.5495 16.0238 17.0699 13.5949 18.8289 11.1528C21.067 8.06563 21.579 5.21545 20.3451 2.68122Z" fill="#DA0101"/>
</svg>
